<?xml version="1.0" encoding="utf-8"?>
<!-- Generator: Adobe Illustrator 21.1.0, SVG Export Plug-In . SVG Version: 6.00 Build 0)  -->
<svg version="1.1" id="Layer_2" xmlns="http://www.w3.org/2000/svg" xmlns:xlink="http://www.w3.org/1999/xlink" x="0px" y="0px"
	 viewBox="0 0 320 816" style="enable-background:new 0 0 320 816;" xml:space="preserve">
<style type="text/css">
	.st0{fill-rule:evenodd;clip-rule:evenodd;fill:#CC2128;}
</style>
<g>
	<g>
		<path class="st0" d="M-198,83.4c-2.1-4.8-5-9.3-8.5-13.1c-0.6,1.3-1.3,2.5-2,3.8c2.6,3,4.7,6.4,6.4,10
			C-200.8,83.8-199.4,83.6-198,83.4z"/>
	</g>
	<g>
		<path class="st0" d="M-198.3,98.6c0.1,1.2,0.2,2.3,0.2,3.5c0,23.8-19.3,43.1-43.1,43.1c-0.8,0-1.6,0-2.3-0.1
			c0.1,0.6,0.2,1.2,0.2,1.8c0,0.8-0.2,1.5-0.4,2.2c0.8,0,1.7,0.1,2.5,0.1c26,0,47.1-21.1,47.1-47.1c0-2.1-0.2-4.1-0.4-6.2
			C-195.8,96.9-197,97.8-198.3,98.6z"/>
	</g>
	<g>
		<path class="st0" d="M-284.3,102.1c0-23.8,19.3-43.1,43.1-43.1c7.9,0,15.2,2.1,21.6,5.8c1.1-0.9,2.2-1.7,3.4-2.6
			c-7.2-4.5-15.8-7.2-24.9-7.2c-26,0-47.1,21.1-47.1,47.1c0,19.8,12.3,36.8,29.7,43.7c-0.4-1.5-0.6-3.1-0.6-4.6
			C-274,134.4-284.3,119.5-284.3,102.1z"/>
	</g>
	<g>
		<path class="st0" d="M-249.6,139.9c7.7-2.7,16.3-9.7,14.5-19.8c-0.9-5.1-4.5-5-7.3-9.3c14.4-12,24.2-28.7,33-46.3
			c-0.7,0-1.3,0-2,0c-7.4,5.7-21.9,17-28.4,26.4c-2.6,3.8-4.6,9.3-7.3,13.9c-4.5,7.7-15.1,21.2-6.6,31.1c-1.4,4.6-1.2,12.4,4,12.6
			C-246.3,146.8-250.9,143.9-249.6,139.9z M-241.3,101.1c1.4,0,2.6,1.2,2.6,2.6c0,1.4-1.2,2.6-2.6,2.6s-2.6-1.2-2.6-2.6
			C-243.8,102.2-242.7,101.1-241.3,101.1z M-251.5,130c-1.9-9,7-16.9,11.9-9.3C-239.4,128.2-245.8,136.5-251.5,130z"/>
	</g>
	<g>
		<path class="st0" d="M-232.4,106.2c14-5.2,30.6-7.8,39-18.5c-9.4,1.4-18.1,3.5-27.8,4.6C-223.3,98.6-228.2,102-232.4,106.2z"/>
	</g>
	<g>
		<path class="st0" d="M-276,95c-4.2,12.2,8.4,16,21.8,13.9c3.8-4.8,5.8-10,2-15.9C-257.1,85.5-273.1,86.6-276,95z M-270.7,102.2
			c-5.1-10.8,12.9-11.1,14.5-5.3C-254,104.6-265.3,105-270.7,102.2z"/>
	</g>
</g>
</svg>
